<svg width="180" height="384" viewBox="0 0 180 384" fill="none" xmlns="http://www.w3.org/2000/svg">
<path d="M99.5 156L96 203.025L125.75 213L167.75 204.45L180 175.95L143.25 156H99.5Z" fill="white"/>
<path d="M4 173.513L11.2 204.538L52.6 213L85 203.128L83.2 158H38.2L4 173.513Z" fill="white"/>
<path d="M119.579 216.056L126.316 232.992L128 280.976V331.782L119.579 351.54L114.526 371.298L99.3684 384L97.6842 303.556L96 244.282L97.6842 209L119.579 216.056Z" fill="#745E5E"/>
<path d="M172 230.562L166.75 209L130 217.625L135.25 233.438L137 301L159.75 285.188L163.25 253.562L172 230.562Z" fill="white"/>
<path d="M23.25 282.6L19.75 259.954L11 230.231L16.25 209L53 216.077L46 230.231V301L23.25 282.6Z" fill="white"/>
<path d="M116.571 95L96 128.692V148.346L142.286 151.154L180 168L174.857 139.923L149.143 134.308L128.571 118.865L116.571 95Z" fill="white"/>
<path d="M0 168L5.26531 141.4L31.5918 134.4L52.6531 117.6L66.6939 98L86 130.2L84.2449 148.4L38.6122 149.8L0 168Z" fill="white"/>
<path d="M58.7234 11.2903L48 46.7742L56.9362 77.4194L74.8085 91.9355L90.8936 100L112.34 88.7097L124.851 75.8065L132 40.3226L123.064 9.67742L90.8936 0L58.7234 11.2903Z" fill="white"/>
<path d="M64.55 214.626L84.35 209L86 244.163L84.35 303.236L82.7 382L67.85 369.341L53 327.146V282.138L54.65 234.317L64.55 214.626Z" fill="#745E5E"/>
</svg>
