<svg width="431" height="384" viewBox="0 0 431 384" fill="none" xmlns="http://www.w3.org/2000/svg">
<path d="M223.5 156L220 203.025L249.75 213L291.75 204.45L304 175.95L267.25 156H223.5Z" fill="white"/>
<path d="M128 173.513L135.2 204.538L176.6 213L209 203.128L207.2 158H162.2L128 173.513Z" fill="white"/>
<path d="M243.579 216.056L250.316 232.992L252 280.976V331.782L243.579 351.54L238.526 371.298L223.368 384L221.684 303.556L220 244.282L221.684 209L243.579 216.056Z" fill="white"/>
<path d="M296 230.562L290.75 209L254 217.625L259.25 233.438L261 301L283.75 285.188L287.25 253.562L296 230.562Z" fill="white"/>
<path d="M147.25 282.6L143.75 259.954L135 230.231L140.25 209L177 216.077L170 230.231V301L147.25 282.6Z" fill="white"/>
<path d="M72 247.741L77.2 259L98 240.704L124 198.481L118.8 183L87.6 205.519L72 247.741Z" fill="#FF0000"/>
<path d="M240.571 95L220 128.692V148.346L266.286 151.154L304 168L298.857 139.923L273.143 134.308L252.571 118.865L240.571 95Z" fill="white"/>
<path d="M124 168L129.265 141.4L155.592 134.4L176.653 117.6L190.694 98L210 130.2L208.245 148.4L162.612 149.8L124 168Z" fill="white"/>
<path d="M337.714 196L343 177.61L341.238 154.976L327.143 143.659L306 138L311.286 160.634L307.762 176.195L337.714 196Z" fill="#FF0000"/>
<path d="M121.238 176.256L91.2857 196L86 177.667L87.7619 153.692L105.381 141H123L115.952 162.154L121.238 176.256Z" fill="#FF0000"/>
<path d="M182.723 11.2903L172 46.7742L180.936 77.4194L198.809 91.9355L214.894 100L236.34 88.7097L248.851 75.8065L256 40.3226L247.064 9.67742L214.894 0L182.723 11.2903Z" fill="white"/>
<path d="M26.1702 317.493L43.617 270.932L62.8085 254L69.7872 268.11L82 265.288L19.1915 348.534L0 357L26.1702 317.493Z" fill="#FF0000"/>
<path d="M188.55 214.626L208.35 209L210 244.163L208.35 303.236L206.7 382L191.85 369.341L177 327.146V282.138L178.65 234.317L188.55 214.626Z" fill="white"/>
<path d="M364.306 252L359.041 264.84L345 263.413L409.939 351.867L431 359L402.918 320.48L387.122 274.827L364.306 252Z" fill="#FF0000"/>
<path d="M299 204V224.714L327.8 262L335 253.714L326 244.048L299 204Z" fill="#FF0000"/>
<path d="M335 262V280.31L347.333 302.845L368.476 322.563L398.429 362L409 356.366L335 262Z" fill="#FF0000"/>
<path d="M308.226 183L303 200.964L329.129 239.655L351.774 259L357 249.327L339.581 203.727L308.226 183Z" fill="#FF0000"/>
<path d="M30.5366 362L57.8537 324.806L80.0488 301.917L92 277.597L90.2927 259L22 353.417L30.5366 362Z" fill="#FF0000"/>
<path d="M98 251.442L128 204V222.14L99.6667 264L98 251.442Z" fill="#FF0000"/>
</svg>
