<svg width="215" height="334" viewBox="0 0 215 334" fill="none" xmlns="http://www.w3.org/2000/svg">
<path d="M83.6304 1L23.7609 31.1452L22 65.5968L29.0435 90L94.1957 74.2097L103 52.6774L83.6304 1Z" fill="#C24141"/>
<path d="M128.727 0L111 51.4286L116.318 72.8571L181.909 90L189 67.1429L187.227 31.4286L128.727 0Z" fill="#C24141"/>
<path d="M99.2222 80H84.1111L69 88.28L86 149L101.111 121.4L103 100.7L99.2222 80Z" fill="#C24141"/>
<path d="M114.368 78L129.526 80.7843L143 89.1373L126.158 149L114.368 122.549L111 100.275L114.368 78Z" fill="#C24141"/>
<path d="M19.0909 76L27.9545 100L51 88.7059L45.6818 119.765L42.1364 169.176L20.8636 196L19.0909 157.882L13.7727 139.529L12 107.059L19.0909 76Z" fill="#C24141"/>
<path d="M195.522 75L187.043 98.9186L165 89.0698L171.783 124.244L175.174 169.267L193.826 196L195.522 160.826L200.609 142.535L204 108.767L195.522 75Z" fill="#C24141"/>
<path d="M59.7368 88L83 154.309L66.8947 222L49 176.412L52.5789 119.773L59.7368 88Z" fill="#C24141"/>
<path d="M154.263 88L161.421 122.536L165 177.794L147.105 222L131 155.691L154.263 88Z" fill="#C24141"/>
<path d="M42.4667 179L27 197.968L38.6 221L56 208.806L42.4667 179Z" fill="white"/>
<path d="M174.4 179L160 209.8L176.2 221L187 197.2L174.4 179Z" fill="white"/>
<path d="M20.5263 202L17.3684 224.698L3.15789 265.837L0 309.814L6.31579 324L17.3684 311.233L22.1053 267.256L30 237.465V223.279L20.5263 202Z" fill="#C24141"/>
<path d="M53.9524 217L45.1429 225.561L36.3333 239.829L27.5238 268.366L24 306.89L39.8571 334L59.2381 302.61L61 229.841L53.9524 217Z" fill="#C24141"/>
<path d="M160.091 217L153 228.16L154.773 300.704L174.273 330L192 304.889L184.909 264.432L176.045 233.741L160.091 217Z" fill="#C24141"/>
<path d="M189.1 202L196.5 228.824L211.3 264.118L215 309.294L205.75 322L196.5 312.118L189.1 265.529L178 227.412L189.1 202Z" fill="#C24141"/>
</svg>
